<svg version="1.1" id="Layer_1" xmlns="http://www.w3.org/2000/svg" xmlns:xlink="http://www.w3.org/1999/xlink" x="0px" y="0px"
	 width="100%" viewBox="0 0 200 68" enable-background="new 0 0 200 68" xml:space="preserve">
<path fill="#000000" opacity="1.000000" stroke="none" 
	d="
M159.000000,69.000000 
	C106.000008,69.000000 53.500011,69.000000 1.000014,69.000000 
	C1.000009,46.333344 1.000009,23.666685 1.000005,1.000020 
	C67.666649,1.000013 134.333298,1.000013 200.999969,1.000007 
	C200.999969,23.666647 200.999969,46.333294 200.999985,68.999969 
	C187.166672,69.000000 173.333328,69.000000 159.000000,69.000000 
M156.463303,34.015118 
	C156.290207,34.061531 156.117126,34.107948 155.195282,34.029373 
	C152.069351,36.457535 151.095871,39.300522 152.711105,42.161461 
	C155.156982,41.309692 157.079590,40.079258 158.960632,40.139809 
	C160.916458,40.202766 162.832123,41.513336 165.336288,42.504261 
	C165.162552,40.558033 165.003891,38.780853 164.914230,36.470310 
	C164.622223,36.286293 164.330200,36.102276 164.036163,35.991589 
	C164.036163,35.991589 164.104187,35.964134 164.055862,35.170029 
	C163.183060,32.409557 162.471008,29.580877 161.345367,26.927685 
	C160.978867,26.063803 159.443878,25.071095 158.603775,25.198174 
	C157.653473,25.341923 156.354431,26.577608 156.173538,27.523340 
	C155.962433,28.627047 156.796448,29.930655 157.031937,31.867559 
	C157.020477,32.603451 157.009018,33.339344 156.463303,34.015118 
M90.658951,36.826656 
	C90.773994,35.924061 90.889038,35.021465 91.711693,34.302593 
	C92.145432,35.666649 92.466515,37.080120 93.038277,38.383633 
	C93.988876,40.550838 94.692131,43.200752 98.795319,41.788879 
	C99.770996,36.933720 103.453178,32.253967 99.642784,25.638252 
	C98.152565,29.895767 97.099709,32.903721 95.989983,35.067924 
	C95.653999,32.511105 95.566948,29.882589 94.861214,27.432264 
	C94.573318,26.432669 92.920952,25.175112 91.931801,25.210800 
	C90.934761,25.246773 89.419762,26.594423 89.152557,27.630621 
	C88.718582,29.313530 89.116928,31.211065 89.023468,33.807766 
	C89.032112,34.874138 89.040756,35.940510 88.238159,36.952652 
	C87.487823,34.626869 86.775322,32.287998 85.976410,29.979023 
	C85.194374,27.718824 85.151360,24.650009 80.758095,25.208746 
	C81.860229,29.706421 82.950272,33.873875 83.886215,38.075653 
	C84.482666,40.753338 84.371658,44.112339 88.272385,43.638084 
	C88.765205,43.578171 88.740288,39.259899 89.461967,36.967201 
	C89.626663,36.925884 89.791351,36.884571 90.658951,36.826656 
M112.979050,34.227432 
	C112.941948,34.074211 112.932991,33.904957 112.857986,33.773323 
	C112.806641,33.683189 112.663307,33.645458 112.561096,33.584305 
	C112.422989,35.024456 112.284874,36.464607 112.138489,38.588608 
	C112.608124,39.430923 112.972916,40.358959 113.573868,41.093887 
	C114.327827,42.015934 115.275414,42.779659 116.139435,43.611717 
	C116.707047,42.740593 117.274658,41.869473 117.972786,40.218739 
	C118.019997,39.167686 118.067215,38.116631 118.749779,36.748505 
	C119.151100,35.534706 119.552414,34.320908 120.000015,33.844078 
	C120.058800,34.578018 120.117592,35.311954 120.167809,36.600910 
	C120.506645,37.033390 120.845490,37.465866 121.036980,38.674686 
	C121.744560,40.310452 122.452148,41.946213 123.159737,43.581978 
	C124.134270,43.086208 125.108803,42.590439 126.774452,41.701065 
	C127.895813,36.228279 129.017181,30.755497 130.138550,25.282713 
	C129.502808,25.023827 128.867050,24.764938 128.231308,24.506052 
	C127.477280,25.756102 126.678802,26.981876 125.979790,28.261969 
	C124.964958,30.120419 124.021927,32.018082 123.000114,33.154755 
	C122.940147,32.412975 122.880188,31.671198 122.818497,30.382204 
	C122.485329,29.955942 122.152161,29.529678 121.969048,28.321976 
	C122.116554,25.394875 120.551025,24.639629 117.242546,25.380367 
	C116.461617,28.572792 115.680679,31.765217 114.282936,34.993225 
	C113.872520,34.966091 113.462097,34.938953 112.979050,34.227432 
M3.991174,3.991168 
	C3.991174,3.991168 3.989671,3.914606 3.196599,4.312369 
	C3.132461,22.589184 3.057701,40.865990 3.046261,59.142838 
	C3.045840,59.815575 3.664654,60.488697 3.968479,61.927155 
	C4.030654,63.197384 4.092829,64.467613 4.208949,66.657951 
	C24.841526,66.752441 45.474098,66.849083 66.106766,66.916321 
	C66.357971,66.917130 66.610405,66.539993 66.999245,66.230125 
	C66.999245,46.359867 67.011147,26.384966 66.957359,6.410243 
	C66.955124,5.578336 66.339188,4.748082 66.007820,3.991460 
	C66.007820,3.991460 66.082222,3.989991 65.686989,3.195803 
	C60.227448,3.130548 54.765667,2.946380 49.309284,3.049021 
	C46.480766,3.102228 43.661800,3.663202 39.986588,3.968481 
	C37.711613,3.977307 35.436638,3.986132 32.718845,3.218636 
	C24.605337,3.145758 16.491674,3.021694 8.378465,3.046424 
	C6.889570,3.050962 5.402516,3.659761 3.991174,3.991168 
M138.133728,25.048731 
	C137.593018,31.211653 137.052307,37.374573 136.515854,43.488804 
	C146.184509,44.643192 147.077530,44.459206 147.632141,41.916996 
	C145.512146,41.916996 143.300690,41.916996 141.011551,41.048775 
	C141.011551,39.460770 141.011551,37.872765 141.011551,36.309162 
	C142.064819,36.164272 142.564362,35.975250 143.019531,36.051399 
	C148.016922,36.887508 149.965866,34.268032 149.953537,29.749771 
	C149.940414,24.940809 146.347809,25.034033 142.974915,25.011326 
	C141.651413,25.002419 140.327148,25.107925 138.133728,25.048731 
M172.449509,27.903601 
	C171.327408,26.804979 170.205322,25.706358 168.762985,24.294201 
	C168.762985,31.624586 168.762985,37.698772 168.762985,43.772957 
	C169.392349,43.788197 170.021729,43.803436 170.651093,43.818676 
	C170.829453,40.451496 171.007828,37.084320 171.189255,33.659302 
	C174.962494,36.622486 174.602554,43.184978 180.726929,44.192940 
	C180.726929,37.371113 180.726929,31.279530 180.726929,24.214216 
	C175.810806,27.481850 179.588608,32.442692 177.165756,35.812069 
	C175.667831,33.216084 174.307709,30.858925 172.449509,27.903601 
M192.006775,26.427498 
	C190.659683,28.025833 189.312592,29.624168 187.887436,31.315125 
	C186.958405,28.695385 186.303345,26.848186 185.648270,25.000986 
	C185.342590,25.161612 185.036911,25.322237 184.731232,25.482862 
	C184.731232,31.560911 184.731232,37.638962 184.731232,43.717010 
	C185.193710,43.748756 185.656204,43.780502 186.118683,43.812248 
	C186.403427,42.335663 186.479141,40.773972 187.035355,39.407932 
	C187.530151,38.192726 188.557343,37.194294 189.724625,35.582169 
	C192.635345,43.350471 193.133392,43.828850 197.094971,43.246021 
	C195.439041,39.864460 193.807312,36.532322 192.097702,33.041126 
	C193.637482,30.583405 195.250046,28.009501 197.425049,24.537840 
	C195.203720,25.171238 193.882278,25.548037 192.006775,26.427498 
M105.000740,35.416229 
	C105.000740,37.685951 105.000740,39.955669 105.000740,42.225391 
	C105.242317,42.206829 105.483902,42.188271 105.725479,42.169708 
	C105.725479,36.651543 105.725479,31.133379 105.725479,25.615215 
	C105.483826,25.615301 105.242180,25.615387 105.000526,25.615473 
	C105.000526,28.567232 105.000526,31.518990 105.000740,35.416229 
M147.954193,37.794399 
	C147.847900,37.673103 147.758331,37.526188 147.628311,37.441204 
	C147.562149,37.397957 147.333984,37.455051 147.330200,37.485527 
	C147.242386,38.194347 147.175308,38.905746 147.104401,39.616665 
	C147.261230,39.640987 147.418076,39.665314 147.574905,39.689640 
	C147.717545,39.288265 147.860184,38.886894 147.954193,37.794399 
z"/>
<path fill="#B0EB07" opacity="1.000000" stroke="none" 
	d="
M33.161663,3.994957 
	C35.436638,3.986132 37.711613,3.977307 40.884212,4.074426 
	C49.881966,4.116911 57.982094,4.053451 66.082222,3.989991 
	C66.082222,3.989991 66.007820,3.991460 65.959396,4.426208 
	C65.910965,25.094723 65.910965,45.328491 65.910965,65.737846 
	C44.986328,65.737846 24.570667,65.737846 4.155004,65.737846 
	C4.092829,64.467613 4.030654,63.197384 4.074472,61.072716 
	C4.116867,41.450390 4.053269,22.682497 3.989671,3.914606 
	C3.989671,3.914606 3.991174,3.991168 4.418712,4.087134 
	C14.284720,4.120386 23.723192,4.057672 33.161663,3.994957 
M18.002022,39.098190 
	C18.011091,41.598045 17.902399,44.106571 18.085463,46.593620 
	C18.161873,47.631710 18.569069,49.036629 19.323366,49.566383 
	C22.712048,51.946320 29.680405,49.335175 31.003294,45.321484 
	C32.014313,42.254002 32.951374,39.162144 33.921333,36.081131 
	C34.481457,36.152130 35.041580,36.223129 35.601707,36.294125 
	C35.832340,40.447361 36.062973,44.600597 36.306561,48.987095 
	C39.097450,48.987095 41.617645,49.263325 44.037548,48.889797 
	C45.645638,48.641579 48.057430,47.814995 48.489082,46.647961 
	C51.864223,37.522720 54.846912,28.252325 58.014900,18.835955 
	C53.196632,17.096155 50.272430,17.679144 49.241245,22.430023 
	C48.863880,24.168631 48.561642,25.943611 47.969887,27.611435 
	C46.740665,31.075903 45.340843,34.479839 44.011147,37.908657 
	C43.418449,37.803352 42.825756,37.698048 42.233059,37.592743 
	C42.233059,31.099529 42.233059,24.606318 42.233059,18.383656 
	C36.382324,17.174940 33.403687,18.415232 32.276787,24.116285 
	C31.155746,29.787689 28.698910,35.195057 26.827814,40.718201 
	C26.248226,40.657394 25.668640,40.596592 25.089054,40.535786 
	C25.089054,33.471378 25.089054,26.406973 25.701744,18.824923 
	C23.088926,18.054956 20.476107,17.284990 16.530909,16.122389 
	C17.036404,24.633072 17.439915,31.426695 18.002022,39.098190 
z"/>
<path fill="#516BFE" opacity="1.000000" stroke="none" 
	d="
M172.698547,28.202682 
	C174.307709,30.858925 175.667831,33.216084 177.165756,35.812069 
	C179.588608,32.442692 175.810806,27.481850 180.726929,24.214216 
	C180.726929,31.279530 180.726929,37.371113 180.726929,44.192940 
	C174.602554,43.184978 174.962494,36.622486 171.189255,33.659302 
	C171.007828,37.084320 170.829453,40.451496 170.651093,43.818676 
	C170.021729,43.803436 169.392349,43.788197 168.762985,43.772957 
	C168.762985,37.698772 168.762985,31.624586 168.762985,24.294201 
	C170.205322,25.706358 171.327408,26.804979 172.698547,28.202682 
z"/>
<path fill="#5770FE" opacity="1.000000" stroke="none" 
	d="
M192.283813,26.176167 
	C193.882278,25.548037 195.203720,25.171238 197.425049,24.537840 
	C195.250046,28.009501 193.637482,30.583405 192.097702,33.041126 
	C193.807312,36.532322 195.439041,39.864460 197.094971,43.246021 
	C193.133392,43.828850 192.635345,43.350471 189.724625,35.582169 
	C188.557343,37.194294 187.530151,38.192726 187.035355,39.407932 
	C186.479141,40.773972 186.403427,42.335663 186.118683,43.812248 
	C185.656204,43.780502 185.193710,43.748756 184.731232,43.717010 
	C184.731232,37.638962 184.731232,31.560911 184.731232,25.482862 
	C185.036911,25.322237 185.342590,25.161612 185.648270,25.000986 
	C186.303345,26.848186 186.958405,28.695385 187.887436,31.315125 
	C189.312592,29.624168 190.659683,28.025833 192.283813,26.176167 
z"/>
<path fill="#F2FCDA" opacity="1.000000" stroke="none" 
	d="
M4.181976,66.197899 
	C24.570667,65.737846 44.986328,65.737846 65.910965,65.737846 
	C65.910965,45.328491 65.910965,25.094723 65.960068,4.389006 
	C66.339188,4.748082 66.955124,5.578336 66.957359,6.410243 
	C67.011147,26.384966 66.999245,46.359867 66.999245,66.230125 
	C66.610405,66.539993 66.357971,66.917130 66.106766,66.916321 
	C45.474098,66.849083 24.841526,66.752441 4.181976,66.197899 
z"/>
<path fill="#4662FE" opacity="1.000000" stroke="none" 
	d="
M139.003220,25.161327 
	C140.327148,25.107925 141.651413,25.002419 142.974915,25.011326 
	C146.347809,25.034033 149.940414,24.940809 149.953537,29.749771 
	C149.965866,34.268032 148.016922,36.887508 143.019531,36.051399 
	C142.564362,35.975250 142.064819,36.164272 141.011551,36.309162 
	C141.011551,37.872765 141.011551,39.460770 140.645813,41.425346 
	C139.845947,40.515804 139.084244,39.241371 139.037872,37.941429 
	C138.886154,33.686394 138.994720,29.422075 139.003220,25.161327 
M146.751648,29.531456 
	C145.005814,28.921021 143.259979,28.310585 141.514160,27.700150 
	C141.251892,28.071770 140.989624,28.443390 140.727356,28.815010 
	C141.158493,29.849812 141.589630,30.884615 142.020767,31.919416 
	C143.412552,31.315918 144.804321,30.712421 146.751648,29.531456 
z"/>
<path fill="#5B74FE" opacity="1.000000" stroke="none" 
	d="
M89.163948,33.018005 
	C89.116928,31.211065 88.718582,29.313530 89.152557,27.630621 
	C89.419762,26.594423 90.934761,25.246773 91.931801,25.210800 
	C92.920952,25.175112 94.573318,26.432669 94.861214,27.432264 
	C95.566948,29.882589 95.653999,32.511105 95.995880,35.820782 
	C96.697166,38.428879 97.392548,40.284119 98.087936,42.139359 
	C94.692131,43.200752 93.988876,40.550838 93.038277,38.383633 
	C92.466515,37.080120 92.145432,35.666649 91.125229,34.208683 
	C90.538765,34.114773 90.074471,34.160175 89.973801,33.932175 
	C89.700508,33.409550 89.464111,33.180828 89.163948,33.018005 
z"/>
<path fill="#5F77FE" opacity="1.000000" stroke="none" 
	d="
M88.955246,36.914558 
	C88.740288,39.259899 88.765205,43.578171 88.272385,43.638084 
	C84.371658,44.112339 84.482666,40.753338 83.886215,38.075653 
	C82.950272,33.873875 81.860229,29.706421 80.758095,25.208746 
	C85.151360,24.650009 85.194374,27.718824 85.976410,29.979023 
	C86.775322,32.287998 87.487823,34.626869 88.621399,36.955833 
	C89.004639,36.959019 88.955246,36.914558 88.955246,36.914558 
z"/>
<path fill="#6E84FE" opacity="1.000000" stroke="none" 
	d="
M123.048271,33.899017 
	C124.021927,32.018082 124.964958,30.120419 125.979790,28.261969 
	C126.678802,26.981876 127.477280,25.756102 128.231308,24.506052 
	C128.867050,24.764938 129.502808,25.023827 130.138550,25.282713 
	C129.017181,30.755497 127.895813,36.228279 126.165070,41.718483 
	C124.807892,40.550270 124.174492,39.262817 123.255119,38.229893 
	C122.895111,37.825428 121.893646,37.991898 121.184326,37.898346 
	C120.845490,37.465866 120.506645,37.033390 120.487228,36.276115 
	C121.553856,35.267220 122.301064,34.583118 123.048271,33.899017 
z"/>
<path fill="#4B66FE" opacity="1.000000" stroke="none" 
	d="
M164.845245,37.003674 
	C165.003891,38.780853 165.162552,40.558033 165.336288,42.504261 
	C162.832123,41.513336 160.916458,40.202766 158.960632,40.139809 
	C157.079590,40.079258 155.156982,41.309692 152.711105,42.161461 
	C151.095871,39.300522 152.069351,36.457535 155.554932,34.427223 
	C156.192780,35.613564 156.470947,36.402058 157.082336,37.296711 
	C159.117203,37.379791 161.533249,38.414146 161.208466,34.928005 
	C162.344177,35.216629 163.224182,35.590382 164.104187,35.964134 
	C164.104187,35.964134 164.036163,35.991589 164.108902,36.177528 
	C164.330582,36.651772 164.551773,36.865170 164.845245,37.003674 
z"/>
<path fill="#7387FF" opacity="1.000000" stroke="none" 
	d="
M138.568481,25.105030 
	C138.994720,29.422075 138.886154,33.686394 139.037872,37.941429 
	C139.084244,39.241371 139.845947,40.515804 140.684631,41.859459 
	C143.300690,41.916996 145.512146,41.916996 147.632141,41.916996 
	C147.077530,44.459206 146.184509,44.643192 136.515854,43.488804 
	C137.052307,37.374573 137.593018,31.211653 138.568481,25.105030 
z"/>
<path fill="#FCFFF8" opacity="1.000000" stroke="none" 
	d="
M3.593135,4.113487 
	C4.053269,22.682497 4.116867,41.450390 4.087677,60.689960 
	C3.664654,60.488697 3.045840,59.815575 3.046261,59.142838 
	C3.057701,40.865990 3.132461,22.589184 3.593135,4.113487 
z"/>
<path fill="#7186FE" opacity="1.000000" stroke="none" 
	d="
M98.441620,41.964119 
	C97.392548,40.284119 96.697166,38.428879 96.024323,36.242653 
	C97.099709,32.903721 98.152565,29.895767 99.642784,25.638252 
	C103.453178,32.253967 99.770996,36.933720 98.441620,41.964119 
z"/>
<path fill="#6078FE" opacity="1.000000" stroke="none" 
	d="
M164.080017,35.567085 
	C163.224182,35.590382 162.344177,35.216629 161.012085,34.947594 
	C160.559998,35.052311 160.165161,35.054016 160.090256,34.712311 
	C159.352203,33.276123 158.689072,32.181641 157.815613,31.129005 
	C157.605270,31.170853 157.176987,31.147532 157.177002,31.147530 
	C156.796448,29.930655 155.962433,28.627047 156.173538,27.523340 
	C156.354431,26.577608 157.653473,25.341923 158.603775,25.198174 
	C159.443878,25.071095 160.978867,26.063803 161.345367,26.927685 
	C162.471008,29.580877 163.183060,32.409557 164.080017,35.567085 
z"/>
<path fill="#7388FE" opacity="1.000000" stroke="none" 
	d="
M114.899750,34.957642 
	C115.680679,31.765217 116.461617,28.572792 117.626358,25.599184 
	C119.279778,26.913137 120.549385,28.008274 121.818993,29.103413 
	C122.152161,29.529678 122.485329,29.955942 122.503036,30.705959 
	C121.442955,31.722179 120.698341,32.414642 119.953728,33.107109 
	C119.552414,34.320908 119.151100,35.534706 118.156181,36.721699 
	C116.674973,36.115807 115.787361,35.536724 114.899750,34.957642 
z"/>
<path fill="#FCFFF8" opacity="1.000000" stroke="none" 
	d="
M32.940254,3.606797 
	C23.723192,4.057672 14.284720,4.120386 4.380431,4.086370 
	C5.402516,3.659761 6.889570,3.050962 8.378465,3.046424 
	C16.491674,3.021694 24.605337,3.145758 32.940254,3.606797 
z"/>
<path fill="#FCFFF8" opacity="1.000000" stroke="none" 
	d="
M65.884605,3.592897 
	C57.982094,4.053451 49.881966,4.116911 41.310181,4.087577 
	C43.661800,3.663202 46.480766,3.102228 49.309284,3.049021 
	C54.765667,2.946380 60.227448,3.130548 65.884605,3.592897 
z"/>
<path fill="#7388FE" opacity="1.000000" stroke="none" 
	d="
M117.842270,40.998348 
	C117.274658,41.869473 116.707047,42.740593 116.139435,43.611717 
	C115.275414,42.779659 114.327827,42.015934 113.573868,41.093887 
	C112.972916,40.358959 112.608124,39.430923 112.320320,38.136536 
	C112.707672,37.486458 112.860947,37.253990 113.309113,36.995255 
	C114.271355,37.670944 114.853386,38.373295 115.510345,38.996689 
	C116.252518,39.700932 117.062027,40.334213 117.842270,40.998348 
z"/>
<path fill="#4C67FE" opacity="1.000000" stroke="none" 
	d="
M121.110657,38.286514 
	C121.893646,37.991898 122.895111,37.825428 123.255119,38.229893 
	C124.174492,39.262817 124.807892,40.550270 125.819519,41.915287 
	C125.108803,42.590439 124.134270,43.086208 123.159737,43.581978 
	C122.452148,41.946213 121.744560,40.310452 121.110657,38.286514 
z"/>
<path fill="#3E5BFE" opacity="1.000000" stroke="none" 
	d="
M105.000633,34.943489 
	C105.000526,31.518990 105.000526,28.567232 105.000526,25.615473 
	C105.242180,25.615387 105.483826,25.615301 105.725479,25.615215 
	C105.725479,31.133379 105.725479,36.651543 105.725479,42.169708 
	C105.483902,42.188271 105.242317,42.206829 105.000740,42.225391 
	C105.000740,39.955669 105.000740,37.685951 105.000633,34.943489 
z"/>
<path fill="#6B80FE" opacity="1.000000" stroke="none" 
	d="
M117.907524,40.608543 
	C117.062027,40.334213 116.252518,39.700932 115.510345,38.996689 
	C114.853386,38.373295 114.271355,37.670944 113.323631,36.649384 
	C113.011238,35.834148 113.031456,35.372986 113.051682,34.911819 
	C113.462097,34.938953 113.872520,34.966091 114.591339,34.975433 
	C115.787361,35.536724 116.674973,36.115807 117.838501,36.880234 
	C118.067215,38.116631 118.019997,39.167686 117.907524,40.608543 
z"/>
<path fill="#4C67FE" opacity="1.000000" stroke="none" 
	d="
M121.894020,28.712692 
	C120.549385,28.008274 119.279778,26.913137 117.991081,25.493670 
	C120.551025,24.639629 122.116554,25.394875 121.894020,28.712692 
z"/>
<path fill="#4C67FE" opacity="1.000000" stroke="none" 
	d="
M119.976868,33.475594 
	C120.698341,32.414642 121.442955,31.722179 122.503899,30.979568 
	C122.880188,31.671198 122.940147,32.412975 123.024193,33.526886 
	C122.301064,34.583118 121.553856,35.267220 120.491516,35.998608 
	C120.117592,35.311954 120.058800,34.578018 119.976868,33.475594 
z"/>
<path fill="#4460FD" opacity="1.000000" stroke="none" 
	d="
M113.015366,34.569626 
	C113.031456,35.372986 113.011238,35.834148 112.976501,36.641186 
	C112.860947,37.253990 112.707672,37.486458 112.324455,37.794609 
	C112.284874,36.464607 112.422989,35.024456 112.561096,33.584305 
	C112.663307,33.645458 112.806641,33.683189 112.857986,33.773323 
	C112.932991,33.904957 112.941948,34.074211 113.015366,34.569626 
z"/>
<path fill="#5670FE" opacity="1.000000" stroke="none" 
	d="
M89.093704,33.412888 
	C89.464111,33.180828 89.700508,33.409550 89.956970,34.265678 
	C90.012558,35.499207 89.984299,36.171234 89.956039,36.843258 
	C89.791351,36.884571 89.626663,36.925884 89.208603,36.940880 
	C88.955246,36.914558 89.004639,36.959019 89.027023,36.982948 
	C89.040756,35.940510 89.032112,34.874138 89.093704,33.412888 
z"/>
<path fill="#A1B0FF" opacity="1.000000" stroke="none" 
	d="
M156.749115,37.190552 
	C156.470947,36.402058 156.192780,35.613564 155.929321,34.489716 
	C156.117126,34.107948 156.290207,34.061531 156.697296,34.018963 
	C156.931274,34.022808 156.947754,33.938286 156.979584,34.248470 
	C157.012756,34.973515 157.014099,35.388371 156.938416,36.148056 
	C156.823959,36.725437 156.786545,36.957996 156.749115,37.190552 
z"/>
<path fill="#AAB7FF" opacity="1.000000" stroke="none" 
	d="
M90.307495,36.834957 
	C89.984299,36.171234 90.012558,35.499207 90.057640,34.493679 
	C90.074471,34.160175 90.538765,34.114773 90.771423,34.116821 
	C90.889038,35.021465 90.773994,35.924061 90.307495,36.834957 
z"/>
<path fill="#CFD6FE" opacity="1.000000" stroke="none" 
	d="
M157.104462,31.507545 
	C157.176987,31.147532 157.605270,31.170853 157.794525,31.482590 
	C157.638428,32.508984 157.293091,33.223637 156.947754,33.938286 
	C156.947754,33.938286 156.931274,34.022808 156.964417,34.049019 
	C157.009018,33.339344 157.020477,32.603451 157.104462,31.507545 
z"/>
<path fill="#BBC5FE" opacity="1.000000" stroke="none" 
	d="
M147.978516,38.139961 
	C147.860184,38.886894 147.717545,39.288265 147.574905,39.689640 
	C147.418076,39.665314 147.261230,39.640987 147.104401,39.616665 
	C147.175308,38.905746 147.242386,38.194347 147.330200,37.485527 
	C147.333984,37.455051 147.562149,37.397957 147.628311,37.441204 
	C147.758331,37.526188 147.847900,37.673103 147.978516,38.139961 
z"/>
<path fill="#6078FE" opacity="1.000000" stroke="none" 
	d="
M164.879730,36.736992 
	C164.551773,36.865170 164.330582,36.651772 164.109924,36.140865 
	C164.330200,36.102276 164.622223,36.286293 164.879730,36.736992 
z"/>
<path fill="#000000" opacity="1.000000" stroke="none" 
	d="
M25.089054,19.342567 
	C25.089054,26.406973 25.089054,33.471378 25.089054,40.535786 
	C25.668640,40.596592 26.248226,40.657394 26.827814,40.718201 
	C28.698910,35.195057 31.155746,29.787689 32.276787,24.116285 
	C33.403687,18.415232 36.382324,17.174940 42.233059,18.383656 
	C42.233059,24.606318 42.233059,31.099529 42.233059,37.592743 
	C42.825756,37.698048 43.418449,37.803352 44.011147,37.908657 
	C45.340843,34.479839 46.740665,31.075903 47.969887,27.611435 
	C48.561642,25.943611 48.863880,24.168631 49.241245,22.430023 
	C50.272430,17.679144 53.196632,17.096155 58.014900,18.835955 
	C54.846912,28.252325 51.864223,37.522720 48.489082,46.647961 
	C48.057430,47.814995 45.645638,48.641579 44.037548,48.889797 
	C41.617645,49.263325 39.097450,48.987095 36.306561,48.987095 
	C36.062973,44.600597 35.832340,40.447361 35.601707,36.294125 
	C35.041580,36.223129 34.481457,36.152130 33.921333,36.081131 
	C32.951374,39.162144 32.014313,42.254002 31.003294,45.321484 
	C29.680405,49.335175 22.712048,51.946320 19.323366,49.566383 
	C18.569069,49.036629 18.161873,47.631710 18.085463,46.593620 
	C17.902399,44.106571 18.011091,41.598045 18.003181,38.175625 
	C18.004343,31.184626 18.004343,25.116192 18.004343,18.810463 
	C20.821829,19.022074 22.955441,19.182320 25.089054,19.342567 
z"/>
<path fill="#ECFBC4" opacity="1.000000" stroke="none" 
	d="
M25.395399,19.083744 
	C22.955441,19.182320 20.821829,19.022074 18.004343,18.810463 
	C18.004343,25.116192 18.004343,31.184626 17.923885,37.736687 
	C17.439915,31.426695 17.036404,24.633072 16.530909,16.122389 
	C20.476107,17.284990 23.088926,18.054956 25.395399,19.083744 
z"/>
<path fill="#000000" opacity="1.000000" stroke="none" 
	d="
M146.473877,29.820190 
	C144.804321,30.712421 143.412552,31.315918 142.020767,31.919418 
	C141.589630,30.884615 141.158493,29.849812 140.727356,28.815010 
	C140.989624,28.443390 141.251892,28.071770 141.514160,27.700150 
	C143.259979,28.310585 145.005814,28.921021 146.473877,29.820190 
z"/>
<path fill="#E7EBFF" opacity="1.000000" stroke="none" 
	d="
M157.082336,37.296715 
	C156.786545,36.957996 156.823959,36.725437 157.290359,36.236214 
	C158.534622,35.671036 159.349884,35.362522 160.165161,35.054016 
	C160.165161,35.054016 160.559998,35.052311 160.756378,35.032722 
	C161.533249,38.414146 159.117203,37.379791 157.082336,37.296715 
z"/>
<path fill="#000000" opacity="1.000000" stroke="none" 
	d="
M160.090256,34.712311 
	C159.349884,35.362522 158.534622,35.671036 157.367401,35.891388 
	C157.014099,35.388371 157.012756,34.973515 156.979584,34.248474 
	C157.293091,33.223637 157.638428,32.508984 158.004852,31.440742 
	C158.689072,32.181641 159.352203,33.276123 160.090256,34.712311 
z"/>
</svg>